nColumns=28
nRows=23
DataType=double
version=3
OpenSimVersion=4.1
endheader
time	ground_force_1_vx	ground_force_1_vy	ground_force_1_vz	ground_force_1_px	ground_force_1_py	ground_force_1_pz	ground_force_1_mx	ground_force_1_my	ground_force_1_mz	ground_force_2_vx	ground_force_2_vy	ground_force_2_vz	ground_force_2_px	ground_force_2_py	ground_force_2_pz	ground_force_2_mx	ground_force_2_my	ground_force_2_mz	ground_force_3_vx	ground_force_3_vy	ground_force_3_vz	ground_force_3_px	ground_force_3_py	ground_force_3_pz	ground_force_3_mx	ground_force_3_my	ground_force_3_mz
0.94	0	0	0	0.000632387	0	-1.0341e-05	0	0	0	-45.6048	67.3477	21.6963	-0.186992	0.006	-0.789108	0	-0.270766	0	0	0	0	0.000632387	0	-1.0341e-05	0	0	0
0.95	-141.221	230.223	-32.9175	-0.149169	0.006	-0.452749	0	0.684181	0	-211.248	341.666	80.8205	-0.199915	0.006	-0.793348	0	-0.678529	0	0	0	0	0.000632387	0	-1.0341e-05	0	0	0
0.96	-313.663	536.354	-70.288	-0.154246	0.006	-0.454533	0	3.62496	0	-259.206	538.045	96.3302	-0.207734	0.006	-0.786191	0	-3.29727	0	0	0	0	0.000632387	0	-1.0341e-05	0	0	0
0.97	-199.615	554.953	-54.5843	-0.16424	0.006	-0.459147	0	6.44813	0	-101.696	568.757	8.34651	-0.221782	0.006	-0.770549	0	-2.90311	0	0	0	0	0.000632387	0	-1.0341e-05	0	0	0
0.98	-82.9174	504.882	-4.64239	-0.174196	0.006	-0.467692	0	4.64858	0	-69.3841	623.307	-42.5631	-0.233472	0.006	-0.75883	0	3.52997	0	0	0	0	0.000632387	0	-1.0341e-05	0	0	0
0.99	-178.652	567.588	-5.86883	-0.176538	0.006	-0.472564	0	0.689797	0	-166.887	703.104	-16.5541	-0.236775	0.006	-0.754597	0	7.43022	0	0	0	0	0.000632387	0	-1.0341e-05	0	0	0
1	-272.179	619.827	-18.9924	-0.17971	0.006	-0.474794	0	-0.73206	0	-249.894	714.309	35.9559	-0.236057	0.006	-0.754019	0	7.03317	0	0	0	0	0.000632387	0	-1.0341e-05	0	0	0
1.01	-270.254	646.431	-19.6449	-0.188111	0.006	-0.477469	0	0.191303	0	-261.481	671.125	79.8588	-0.235415	0.006	-0.755292	0	4.3415	0	0	0	0	0.000632387	0	-1.0341e-05	0	0	0
1.02	-216.466	719.182	-33.9878	-0.203063	0.006	-0.480492	0	0.268283	0	-211.166	635.627	94.6107	-0.241077	0.006	-0.754447	0	1.7862	0	0	0	0	0.000632387	0	-1.0341e-05	0	0	0
1.03	-141.476	821.765	-36.1756	-0.220149	0.006	-0.487376	0	-1.35808	0	-157.193	649.986	89.8287	-0.252756	0.006	-0.748877	0	0.632659	0	0	0	0	0.000632387	0	-1.0341e-05	0	0	0
1.04	-106.094	890.239	-11.583	-0.229983	0.006	-0.496308	0	-4.68382	0	-136.19	713.556	71.5154	-0.264659	0.006	-0.739837	0	1.11196	0	0	0	0	0.000632387	0	-1.0341e-05	0	0	0
1.05	-114.949	884.479	17.1979	-0.230508	0.006	-0.503238	0	-6.69049	0	-128.278	780.866	41.8129	-0.273223	0.006	-0.731003	0	1.95464	0	0	0	0	0.000632387	0	-1.0341e-05	0	0	0
1.06	-130.358	840.648	20.4713	-0.226563	0.006	-0.505919	0	-6.16487	0	-111.2	802.334	15.762	-0.277684	0.006	-0.724935	0	2.09245	0	0	0	0	0.000632387	0	-1.0341e-05	0	0	0
1.07	-127.749	812.258	4.75185	-0.223729	0.006	-0.505412	0	-4.70851	0	-88.7924	771.156	7.99982	-0.2782	0.006	-0.722192	0	1.30509	0	0	0	0	0.000632387	0	-1.0341e-05	0	0	0
1.08	-115.922	805.705	-6.97521	-0.222158	0.006	-0.504312	0	-3.63152	0	-80.3664	728.727	13.9975	-0.274823	0.006	-0.721772	0	0.238349	0	0	0	0	0.000632387	0	-1.0341e-05	0	0	0
1.09	-111.405	800.489	-11.2873	-0.21915	0.006	-0.503391	0	-3.26265	0	-85.8063	714.645	16.9867	-0.269971	0.006	-0.721521	0	-0.140083	0	0	0	0	0.000632387	0	-1.0341e-05	0	0	0
1.1	-114.364	796.012	-15.0054	-0.21514	0.006	-0.502393	0	-3.14649	0	-91.6536	721.493	12.7772	-0.266125	0.006	-0.720536	0	0.46702	0	0	0	0	0.000632387	0	-1.0341e-05	0	0	0
1.11	-113.119	792.836	-20.4874	-0.212043	0.006	-0.501289	0	-3.00997	0	-94.7337	727.742	6.80676	-0.262947	0.006	-0.719522	0	1.62993	0	0	0	0	0.000632387	0	-1.0341e-05	0	0	0
1.12	-106.661	788.006	-23.7991	-0.210172	0.006	-0.500488	0	-2.96582	0	-97.3217	729.296	4.63935	-0.259847	0.006	-0.719106	0	2.59657	0	0	0	0	0.000632387	0	-1.0341e-05	0	0	0
1.13	-101.307	780.749	-22.5982	-0.208618	0.006	-0.500286	0	-3.177	0	-100.777	731.18	9.65196	-0.256674	0.006	-0.719472	0	2.89263	0	0	0	0	0.000632387	0	-1.0341e-05	0	0	0
1.14	-100.149	774.317	-19.0788	-0.206967	0.006	-0.500452	0	-3.68804	0	-101.196	741.018	17.5789	-0.254492	0.006	-0.720045	0	2.85839	0	0	0	0	0.000632387	0	-1.0341e-05	0	0	0
1.15	-100.467	770.066	-14.4325	-0.20556	0.006	-0.500847	0	-4.32156	0	-94.9737	758.097	21.1899	-0.254096	0.006	-0.719873	0	3.11123	0	0	0	0	0.000632387	0	-1.0341e-05	0	0	0
1.16	-98.6119	769.944	-9.80722	-0.204739	0.006	-0.50129	0	-4.79933	0	-84.2642	777.791	18.2219	-0.255136	0.006	-0.718795	0	3.83486	0	0	0	0	0.000632387	0	-1.0341e-05	0	0	0
